PathFileType	4	(X/Y/Z)	C:/Users/beibeiliu/ov580/test_trc/User3\out8_training_dense_left.trc
DataRate	CameraRate	NumFrames	NumMarkers	Units	OrigDataRate	OrigDataStartFrame	OrigNumFrames
120	120	22	19	mm	120	126	500
Frame#	Time	ThumbCMC			ThumbMCP			ThumbIP			ThumbTip			IndexMCP			IndexPIP			IndexTip			MiddleMCP			MiddlePIP			MiddleTip			RingMCP			RingPIP			RingTip			PinkyMCP			PinkyPIP			PinkyTip			BackHand1			BackHand2			BackHand3	
		X0	Y0	Z0	X1	Y1	Z1	X2	Y2	Z2	X3	Y3	Z3	X4	Y4	Z4	X5	Y5	Z5	X6	Y6	Z6	X7	Y7	Z7	X8	Y8	Z8	X9	Y9	Z9	X10	Y10	Z10	X11	Y11	Z11	X12	Y12	Z12	X13	Y13	Z13	X14	Y14	Z14	X15	Y15	Z15	X16	Y16	Z16	X17	Y17	Z17	X18	Y18	Z18	
125	1.04167	-83.3282	29.3794	41.7538	-71.4923	18.8182	10.0031	-77.4718	13.8123	-21.5512	-100.696	9.94687	-36.545	-90.6108	59.7058	-22.7049	-79.1794	32.2178	-38.4526	-83.1287	17.5538	-6.21624	-107.984	51.8344	-34.5377	-100.483	22.2725	-39.0093	-105.101	17.8691	0.260018	-129.521	43.1624	-29.715	-114.288	14.2029	-36.6121	-114.074	3.90876	-4.55026	-148.769	43.1253	-17.0428	-143.651	47.4026	-40.1724	-142.495	48.3298	-61.9647	-143.351	54.0379	26.1715	-145.327	44.3757	54.1993	-111.804	55.6491	46.7781	
126	1.05	-84.4079	28.3943	40.9314	-75.6927	19.3375	10.7676	-80.6944	14.4681	-24.8499	-104.616	9.18089	-36.5608	-92.8024	58.5528	-28.2314	-81.9383	32.3368	-40.399	-85.9561	15.9262	-8.18203	-114.904	53.0113	-30.8654	-99.9955	25.5867	-43.1556	-102.331	16.2995	-3.54669	-130.839	40.2459	-33.2195	-119.459	14.6818	-37.227	-114.364	3.59649	-7.31612	-152.821	42.2747	-17.3094	-145.703	45.3014	-36.4308	-143.573	44.3234	-62.2213	-144.118	55.6273	25.1906	-146.006	40.3331	57.1749	-115.814	57.4995	44.2015	
127	1.05833	-85.9445	28.7132	41.4563	-74.1732	16.2438	8.44021	-84.559	11.505	-21.1418	-110.399	6.0384	-38.1018	-99.5472	58.1127	-28.4928	-86.7939	36.2539	-45.9802	-84.3093	12.0196	-18.8022	-113.221	50.3198	-35.4763	-104.048	21.4869	-42.3321	-106.574	15.1136	-2.94014	-131.91	38.5762	-31.6043	-123.48	11.9819	-37.5059	-113.438	4.03191	-3.68092	-154.566	38.9164	-17.5205	-152.469	39.5631	-39.2082	-145.03	38.7468	-62.9774	-144.25	51.824	29.4949	-147.485	43.8663	54.1618	-117.801	56.7742	42.5827	
128	1.06667	-87.6918	27.8482	41.9003	-77.1103	15.0976	8.8451	-87.1745	8.61492	-21.8197	-108.82	1.1555	-34.7835	-104.753	60.84	-24.9529	-94.651	42.9971	-52.8035	-82.4757	17.3304	-41.7243	-118.815	46.9774	-36.5144	-106.129	19.5859	-45.3735	-108.9	11.5335	-7.02835	-134.844	34.6405	-32.762	-125.307	9.39784	-38.0184	-116.651	2.44215	-2.80402	-153.74	35.8069	-14.2571	-153.78	35.9185	-39.9195	-145.341	34.1271	-64.2344	-146.408	50.1011	26.3239	-149.426	42.2825	57.1734	-116.136	56.0989	45.94	
129	1.075	-88.2057	26.295	41.0501	-80.8178	11.8479	8.64571	-91.2037	4.28887	-23.2425	-110.509	-2.75446	-31.3007	-104.194	63.3996	-22.1959	-99.0405	54.5326	-57.1841	-88.9817	29.6814	-64.7511	-124.102	44.2801	-34.3254	-109.413	16.6264	-45.6636	-108.995	6.1794	-8.44917	-137.545	30.165	-31.0342	-127.679	3.43357	-35.8329	-119.499	-1.35688	-2.76638	-158.343	32.6228	-15.055	-154.285	33.0677	-38.2975	-150.054	31.4387	-63.109	-147.765	48.6511	27.3457	-148.135	42.3424	56.8369	-115.561	54.9194	42.5097	
130	1.08333	-89.4472	25.6976	37.6921	-81.4444	10.0964	4.40754	-92.7912	-1.55012	-23.0191	-114.552	-9.00928	-34.6888	-105.086	62.8082	-22.6567	-105.011	63.7126	-56.2327	-98.6905	46.0885	-80.4036	-122.135	41.4896	-36.3966	-111.841	13.2545	-48.0153	-107.827	2.28896	-10.8771	-140.973	27.9055	-28.1334	-123.791	-1.26483	-33.6197	-118.178	-3.37952	0.0203361	-157.078	29.6116	-16.9509	-156.117	28.3895	-37.3745	-156.144	25.4415	-61.9683	-150.513	47.952	23.0401	-149.33	38.8545	54.622	-117.311	53.0875	43.4544	
131	1.09167	-90.9868	22.5816	37.9365	-83.1334	6.38946	5.22786	-91.3222	-5.77846	-21.737	-116.205	-13.3719	-32.5595	-107.082	60.4608	-27.5485	-105.411	64.9523	-52.8072	-106.124	59.155	-80.1784	-124.201	36.9283	-39.7921	-112.87	7.65787	-47.7508	-111.212	-0.634535	-8.1861	-140.346	22.3267	-30.4194	-129.295	-6.79326	-33.4675	-122.572	-8.89542	-1.35127	-156.573	26.941	-16.4596	-160.287	23.6304	-38.7432	-162.869	23.2747	-64.2588	-151.382	43.8877	24.3814	-147.943	40.6697	53.8899	-118.558	50.7004	41.4072	
132	1.1	-89.9103	22.9704	34.6357	-80.6797	4.0326	1.87115	-92.1053	-6.62247	-25.2466	-114.47	-15.2511	-34.0547	-108.315	57.7657	-28.7832	-107.827	63.6096	-55.5478	-105.371	65.2694	-79.8256	-123.828	33.3425	-41.686	-114.942	3.60937	-46.8431	-111.795	-0.951834	-6.27032	-136.488	21.5868	-33.1506	-128.664	-8.74463	-32.741	-118.67	-9.70893	-2.3748	-157.048	25.8428	-17.8787	-159.896	23.2415	-41.6123	-163.25	21.3077	-64.6543	-147.635	43.3998	20.042	-146.876	39.094	55.5742	-116.159	52.9456	34.387	
133	1.10833	-86.8705	22.478	33.3542	-79.4705	3.66029	4.52191	-92.5613	-8.0534	-22.7853	-118.572	-16.2662	-36.0938	-105.878	57.1015	-28.2925	-106.22	61.0231	-55.3744	-104.379	65.3054	-81.6882	-124.625	32.3183	-40.2267	-110.743	3.83556	-47.1019	-111.859	-2.81624	-8.55873	-142.85	20.3771	-30.5627	-127.752	-7.28519	-35.1469	-118.798	-9.17212	-0.964538	-161.281	23.2146	-18.1795	-163.531	21.3062	-39.2103	-162.371	21.3741	-60.4345	-148.716	44.0766	24.427	-148.438	38.8356	53.8126	-118.66	50.9381	37.2597	
134	1.11667	-89.1462	20.41	36.7068	-84.7027	3.74304	2.63343	-94.873	-8.32978	-23.2548	-117.159	-17.1978	-33.3563	-107.012	55.7568	-28.832	-100.732	61.2922	-58.5278	-104.952	61.846	-79.9608	-122.035	32.2851	-40.2515	-113.167	2.98201	-48.3733	-107.637	-0.481668	-6.15627	-141.681	19.1311	-31.4118	-126.892	-9.38525	-34.3163	-121.201	-10.647	0.948118	-161.635	23.9728	-21.3127	-159.48	22.6127	-41.6792	-160.961	22.7447	-62.2916	-149.179	41.419	19.1742	-147.731	40.5728	49.5267	-117.312	52.0888	35.0454	
135	1.125	-88.8963	20.265	39.1904	-81.6876	1.9317	5.70344	-94.8946	-9.9988	-23.6213	-116.734	-19.493	-36.1456	-106.767	55.6015	-32.8141	-105.579	58.8189	-58.8817	-105.97	60.911	-82.6659	-122.392	31.5285	-39.4351	-110.661	3.57342	-47.6066	-112.563	-2.26064	-4.52366	-136.034	18.7819	-32.8625	-128.275	-12.1293	-32.2366	-118.713	-11.1698	-0.28072	-158.709	22.4162	-16.2303	-161.377	22.1953	-41.6565	-164.182	23.6163	-61.157	-147.838	42.3771	21.6155	-152.358	36.5556	48.8951	-117.57	50.1506	36.162	
136	1.13333	-92.7868	19.6104	34.9111	-84.1285	1.31899	3.30839	-92.1482	-11.9567	-21.1568	-118.358	-19.5964	-35.3345	-105.916	55.4431	-32.2815	-105.771	58.8316	-56.8812	-105.763	60.2922	-80.1858	-122.172	31.0711	-39.8742	-110.134	1.0968	-45.8076	-107.235	-2.27198	-4.75853	-139.489	18.4387	-30.3283	-128.969	-8.78804	-34.8508	-121.291	-11.6036	1.51707	-159.677	23.9859	-20.9393	-163.632	21.4064	-39.5911	-163.584	24.4264	-64.2001	-146.623	41.4562	24.0511	-151.963	37.1411	50.9402	-119.638	49.2086	36.0676	
137	1.14167	-93.2133	20.1869	35.9786	-82.9898	0.429687	6.5269	-97.3584	-11.3526	-21.1941	-120.556	-19.124	-31.7106	-106.187	54.4726	-27.4876	-101.053	59.0987	-56.8923	-100.646	60.6514	-81.4008	-122.828	31.7792	-35.9112	-110.318	0.0781134	-45.7588	-110.949	-6.01067	-6.25918	-142.048	18.3365	-29.3242	-131.953	-10.6491	-33.2049	-120.088	-10.7341	1.52734	-158.957	23.3388	-18.7974	-162.115	21.3325	-40.9178	-163.217	23.9538	-59.0525	-148.391	42.0885	23.7073	-150.792	35.4798	52.4797	-117.416	50.6361	36.5112	
138	1.15	-92.1001	18.6588	38.9081	-84.2156	0.280889	7.47128	-95.898	-12.9813	-24.5373	-119.397	-20.983	-32.266	-106.559	54.4875	-30.2667	-105.581	57.7511	-58.4322	-102.272	59.4617	-84.2231	-124.896	29.0519	-40.3805	-111.514	-0.958529	-45.1233	-109.475	-6.71602	-7.0823	-140.33	19.1057	-29.4791	-128.403	-10.5356	-33.6025	-124.488	-13.2846	-0.233081	-156.412	23.5919	-19.7795	-162.049	21.1461	-41.4513	-162.473	22.8421	-59.0593	-151.23	42.4438	19.5379	-149.603	35.6623	54.1785	-116.815	50.0992	34.5411	
139	1.15833	-88.7185	20.5463	35.8961	-83.063	2.32292	3.74017	-96.7134	-9.56893	-22.6485	-117.532	-16.4223	-29.0656	-104.741	56.5232	-30.6488	-103.089	59.8748	-58.7319	-105.298	60.0889	-80.0184	-126.269	29.3001	-41.67	-113.087	2.90697	-48.1422	-107.524	-4.62878	-8.70645	-139.537	17.6788	-31.2854	-128.731	-11.5241	-31.3081	-120.135	-9.10644	0.607166	-158.871	22.6003	-14.9785	-161.645	21.4549	-37.9643	-163.161	21.9893	-62.7041	-148.534	41.0123	24.4864	-151.268	37.5842	49.4838	-119.635	48.6885	37.9106	
140	1.16667	-90.7743	22.8099	36.6799	-82.0199	5.27986	5.41782	-95.0951	-5.61341	-23.3062	-121.478	-12.6305	-32.7909	-109.116	59.3355	-28.6014	-107.467	65.0764	-56.7547	-108.295	66.6107	-78.8443	-124.226	36.305	-36.2126	-114.545	6.91531	-46.9549	-109.289	1.11287	-6.17187	-138.682	23.9352	-30.3621	-126.02	-6.65488	-31.8204	-119.163	-5.0974	-0.38566	-158.849	27.0161	-16.5399	-160.646	27.1273	-37.7521	-158.782	29.6596	-57.8672	-148.631	42.7734	24.8764	-149.087	36.3316	56.0763	-116.671	53.6619	37.7335	
141	1.175	-89.0055	23.9653	37.7938	-85.2515	10.6302	4.09721	-93.0589	1.57603	-26.2892	-118.316	-3.61998	-33.3836	-106.248	67.0367	-22.2191	-106.198	74.3651	-47.8266	-105.04	79.856	-76.324	-126.94	45.4267	-34.3541	-111.036	15.0365	-45.9389	-108.68	6.14181	-9.13099	-141.939	29.7443	-31.593	-131.415	2.96692	-34.5971	-124.557	-2.66086	-3.82199	-161.072	36.6545	-17.6059	-161.757	37.3774	-34.2983	-160.68	43.8314	-59.9562	-149.031	47.3797	23.6242	-151.055	39.5282	53.8044	-118.913	51.7992	41.3292	
142	1.18333	-88.5907	24.2758	38.2844	-86.891	14.4144	1.43485	-98.4329	7.94055	-28.5798	-124.313	4.09502	-35.5805	-109.388	74.1443	-18.8563	-111.529	82.8085	-45.8962	-111.192	87.9956	-69.3449	-125.778	52.3504	-34.6973	-118.451	24.406	-48.1633	-115.99	11.8225	-9.06131	-141.87	39.4397	-27.7269	-134.621	10.4327	-36.0579	-121.357	4.89157	-3.031	-163.966	42.8847	-16.0444	-161.342	46.0857	-33.7312	-166.358	51.455	-55.7498	-149.074	50.9892	28.1659	-153.132	40.6555	55.421	-120.469	53.7674	44.5052	
143	1.19167	-92.2719	26.2761	34.005	-92.9837	15.114	-1.05106	-104.092	8.57082	-29.7973	-130.56	5.14455	-36.6318	-113.432	74.6715	-21.2881	-115.31	84.5271	-46.1577	-115.597	89.4049	-72.0782	-134.191	51.9622	-37.044	-124.319	23.2596	-47.5896	-116.177	13.1157	-9.8067	-148.056	39.9353	-27.5115	-138.671	8.69487	-34.7451	-128.537	1.81109	-7.0656	-167.719	41.5851	-11.8564	-166.168	46.5769	-34.1243	-170.638	51.3384	-59.4529	-150.593	54.6889	27.2634	-154.164	40.4101	56.2287	-122.225	53.2299	42.3389	
144	1.2	-95.1546	23.5751	31.4324	-93.8953	10.5763	-5.9022	-109.413	1.6785	-32.0728	-137.847	-2.98958	-39.1869	-117.817	68.4006	-27.1599	-117.165	75.2541	-55.6031	-119.372	78.0364	-83.3568	-138.268	45.3082	-38.327	-129.167	16.7272	-50.3787	-118.351	9.05052	-10.0741	-149.996	30.7445	-33.1627	-143.301	4.51123	-36.9351	-132.509	-1.6082	-1.5362	-167.556	36.7115	-14.1767	-172.393	37.634	-39.2445	-176.011	38.6265	-58.1862	-152.548	51.8385	24.564	-154.033	42.1544	54.7971	-121.713	54.3194	35.2891	
145	1.20833	-96.5718	21.8261	26.1205	-97.0458	1.77749	-3.82004	-113.703	-12.007	-29.4658	-139.893	-18.0768	-32.5755	-122.973	54.3027	-39.0065	-123.646	55.7302	-62.9233	-124.518	53.1714	-87.8326	-142.733	28.7413	-40.2637	-133.516	-0.921397	-47.3315	-121.445	-0.392311	-5.66575	-153.665	19.3942	-30.1394	-146.383	-11.6417	-30.9404	-133.959	-8.4263	1.37644	-175.951	26.1187	-20.2193	-178.627	20.2771	-39.6798	-180.378	13.3407	-62.4325	-158.694	43.7377	20.7731	-158.449	41.6012	51.3049	-124.358	50.7087	31.9894	
146	1.21667	-103.322	21.5848	28.6542	-98.222	-2.6769	1.89687	-104.736	-24.4157	-20.655	-133.255	-32.4299	-21.8829	-129.387	37.0771	-42.5703	-125.314	33.9855	-67.0732	-127.718	23.1939	-96.6584	-141.497	12.2259	-41.4487	-129.816	-18.8325	-40.784	-121.241	-10.2449	-3.02648	-154.557	-0.711101	-31.4648	-140.946	-28.7466	-22.2289	-133.151	-20.3972	5.5407	-176.507	7.39174	-17.649	-176.138	-0.340873	-39.2241	-171.31	-17.8213	-59.7827	-162.215	34.4788	17.503	-162.632	37.9772	45.9451	-133.853	49.2049	26.8629	
